<svg viewBox="0 0 82.517346 81.46230180180179" xmlns:xlink="http://www.w3.org/1999/xlink" xmlns="http://www.w3.org/2000/svg" style="max-height: 500px" width="82.517346" height="81.46230180180179">
  <defs>
    <linearGradient gradientUnits="objectBoundingBox" y2="1.091" x2="1" y1="-0.117" id="linear-gradient">
      <stop stop-color="#6f6aef" offset="0"/>
      <stop stop-color="#9a91fe" offset="1"/>
    </linearGradient>
  </defs>
  <g transform="translate(-55.183 -50.452)" data-name="Group 7" id="Group_7">
    <path fill="#4f4d88" transform="translate(150.64 112)" d="M41.34,0,40.333-2.915l7.844-22.26c2.067-5.83,3.816-9.116,6.254-11.925H38c5.459,4.293,9.911,11.077,4.77,25.6A66.445,66.445,0,0,1,39.8-4.346l-9.54-27.136c-.9-2.544-.371-4.558,1.007-5.618H17.49a7.058,7.058,0,0,1,2.968,3.975L25.175-19.61c2.067,6.572.265,11.448-1.749,15.37L13.833-31.482c-.9-2.544-.371-4.558,1.007-5.618H1.06a7.058,7.058,0,0,1,2.968,3.975L15.953.8A34.982,34.982,0,0,1,23.214,0h1.7L23.9-2.915l3.6-10.123L32.383.8A34.982,34.982,0,0,1,39.644,0ZM58.724-13.409a12.381,12.381,0,0,0,6.784,2.12c4.452,0,8.056-2.915,8.056-7.844s-3.551-7.9-9.434-7.9c-8.109,0-13.356,5.618-13.356,14.257,0,8.162,4.664,13.3,12.084,13.3,7.632,0,11.713-5.459,11.607-15.635-.583,5.353-4.24,9.328-8.692,9.328C62.01-5.777,59.413-8.639,58.724-13.409Zm-.106-.53c-.053-.742-.106-1.537-.106-2.332,0-5.989,2.385-10.229,5.671-10.229,1.908,0,2.809,1.378,2.809,4.293,0,5.141-2.862,8.851-6.1,8.851A4.563,4.563,0,0,1,58.618-13.939ZM97.891,0c-1.8-1.007-2.915-2.756-2.915-7.9V-36.57h.848c4.4,0,5.512,10.494,10.388,14.84a48.67,48.67,0,0,1,0-16.165,12.821,12.821,0,0,1-4.452.795H79.5a12.821,12.821,0,0,1-4.452-.795,48.67,48.67,0,0,1,0,16.165c4.876-4.346,5.989-14.84,10.388-14.84h.848V-7.9c0,5.141-1.113,6.89-2.915,7.9Zm17.331-13.409a12.381,12.381,0,0,0,6.784,2.12c4.452,0,8.056-2.915,8.056-7.844s-3.551-7.9-9.434-7.9c-8.109,0-13.356,5.618-13.356,14.257,0,8.162,4.664,13.3,12.084,13.3,7.632,0,11.713-5.459,11.607-15.635-.583,5.353-4.24,9.328-8.692,9.328C118.508-5.777,115.911-8.639,115.222-13.409Zm-.106-.53c-.053-.742-.106-1.537-.106-2.332,0-5.989,2.385-10.229,5.671-10.229,1.908,0,2.809,1.378,2.809,4.293,0,5.141-2.862,8.851-6.1,8.851A4.563,4.563,0,0,1,115.116-13.939Zm35.722,1.908A25.707,25.707,0,0,1,156.085-26.5a13.558,13.558,0,0,1-2.491.212c-2.544,0-4.823-.636-7.632-.636-8,0-12.826,5.194-12.826,13.833C133.136-4.77,137.641.53,144.8.53,152.11.53,156.3-5.088,156.3-15c-.848,5.671-4.028,9.222-8.268,9.222-4.452,0-7.155-3.816-7.155-10.017,0-5.883,2.438-10.706,5.406-10.706C150.2-26.5,148.824-17.914,150.838-12.031ZM171.614,0h14.522c-2.12-1.166-2.915-3.392-2.915-7.9v-5.989c0-9.222-2.438-13.144-8.162-13.144a15.279,15.279,0,0,0-6.572,1.643V-39.75c-1.908,1.166-4.77,1.431-7.844,1.431H156.88c1.855,1.272,2.915,4.134,2.915,7.844V-7.9c0,4.505-.8,6.731-2.915,7.9H171.4c-2.12-1.166-2.915-3.392-2.915-7.9V-24.91a4.086,4.086,0,0,1,1.537-.265c3.233,0,4.505,4.346,4.505,10.706V-7.9C174.529-3.392,173.734-1.166,171.614,0Zm31.164,0c-1.8-1.007-2.915-2.756-2.915-7.9v-5.777h.477c9.805,0,16.112-3.922,16.112-11.872S210.145-37.1,200.34-37.1H188.256c1.8,1.007,2.915,2.756,2.915,7.844V-7.9c0,5.141-1.113,6.89-2.915,7.9Zm-2.915-14.2V-36.57h.424c4.929,0,7.42,5.565,7.42,11.183,0,5.565-2.491,11.183-7.42,11.183ZM218.625,0h14.522c-2.12-1.166-2.915-3.392-2.915-7.9v-9.911c.636-2.385,1.855-3.445,3.286-3.445,3.233,0,3.392,5.618,6.731,9.7-1.06-5.936-.424-11.766,1.537-14.946a8.545,8.545,0,0,0-3.233-.689c-3.392,0-6.36,2.12-8.321,7.95v-8.692c-1.961,1.166-4.823,1.431-7.9,1.431h-3.71c1.8,1.219,2.915,4.134,2.915,8.374V-7.9C221.54-3.392,220.745-1.166,218.625,0Zm37.418.53c8.268,0,13.621-5.406,13.621-13.78,0-8.533-5.194-13.78-13.621-13.78-8.48,0-13.674,5.247-13.674,13.78C242.369-4.876,247.722.53,256.043.53Zm1.06-.583c-3.339,0-6.148-7.579-6.148-16.059,0-6.413,1.59-10.335,3.975-10.335,3.392,0,6.148,7.579,6.148,16.059C261.078-3.975,259.488-.053,257.1-.053Z" data-name="Path 14" id="Path_14"/>
    <path fill="url(#linear-gradient)" transform="translate(55.183 50.452)" d="M0,40.548c0-12.6,0-18.893,2.058-23.861a27.032,27.032,0,0,1,14.63-14.63C21.655,0,27.953,0,40.548,0h0c12.6,0,18.893,0,23.861,2.058a27.033,27.033,0,0,1,14.63,14.63C81.1,21.655,81.1,27.953,81.1,40.548h0c0,12.6,0,18.893-2.058,23.861a27.033,27.033,0,0,1-14.63,14.63C59.441,81.1,53.144,81.1,40.548,81.1h0c-12.6,0-18.893,0-23.861-2.058a27.033,27.033,0,0,1-14.63-14.63C0,59.441,0,53.144,0,40.548Z" data-name="Path 11" id="Path_11"/>
    <g transform="translate(-2669.207 -584.45)" data-name="Group 6" id="Group_6">
      <path opacity="0.92" fill="#fff" transform="translate(0 0)" d="M2764.938,682.519l-21.815,16.243a2.878,2.878,0,0,1-4.577-1.962l-3.878-31.969a2.1,2.1,0,0,1,3.313-1.946Z" data-name="Path 7" id="Path_7"/>
      <path opacity="0.93" fill="#e3e2ff" transform="translate(-235.062 0)" d="M3000,682.519l21.815,16.243a2.878,2.878,0,0,0,4.576-1.962l3.879-31.969a2.1,2.1,0,0,0-3.313-1.946Z" data-name="Path 8" id="Path_8"/>
      <path opacity="0.75" fill="#fff" transform="translate(-51.291 -3.102)" d="M2838.2,701.977l-21.97-16.356-21.97,16.356a1.064,1.064,0,0,1-1.535-1.42l20.836-33.1a3.154,3.154,0,0,1,5.338,0l20.837,33.1A1.064,1.064,0,0,1,2838.2,701.977Z" data-name="Path 9" id="Path_9"/>
    </g>
  </g>
</svg>
